<svg xmlns="http://www.w3.org/2000/svg" viewBox="0 0 256 256">
  <defs>
    <linearGradient id="bg" x1="0" y1="0" x2="1" y2="1">
      <stop offset="0%" stop-color="#0b1624"/>
      <stop offset="100%" stop-color="#14253a"/>
    </linearGradient>
    <linearGradient id="gold" x1="0" y1="0" x2="1" y2="1">
      <stop offset="0%" stop-color="#f5d37a"/>
      <stop offset="100%" stop-color="#b4842b"/>
    </linearGradient>
  </defs>
  <rect width="256" height="256" rx="28" fill="url(#bg)"/>
  <path d="M40 204c18-38 44-58 88-58s70 20 88 58" fill="#50657d"/>
  <path d="M86 152c8-20 20-32 42-32s34 12 42 32" fill="#91a7bf"/>
  <circle cx="128" cy="94" r="42" fill="#c8d5e4"/>
  <path d="M88 82c18-24 34-34 40-34s22 10 40 34" fill="none" stroke="url(#gold)" stroke-width="12" stroke-linecap="round"/>
  <path d="M74 176c18-18 36-28 54-28s36 10 54 28" fill="none" stroke="#f4e3b2" stroke-opacity="0.18" stroke-width="6"/>
  <circle cx="112" cy="94" r="5" fill="#0e1724"/>
  <circle cx="144" cy="94" r="5" fill="#0e1724"/>
  <path d="M114 116c8 6 20 6 28 0" fill="none" stroke="#0e1724" stroke-width="5" stroke-linecap="round"/>
  <rect x="10" y="10" width="236" height="236" rx="22" fill="none" stroke="#f4e3b2" stroke-opacity="0.10" stroke-width="4"/>
</svg>
