<svg xmlns="http://www.w3.org/2000/svg" viewBox="0 0 128 128">
  <defs>
    <linearGradient id="body" x1="0" y1="0" x2="1" y2="1">
      <stop offset="0%" stop-color="#d6e7f2"/>
      <stop offset="100%" stop-color="#7fa0b8"/>
    </linearGradient>
  </defs>
  <rect x="14" y="14" width="100" height="100" rx="18" fill="#09111d" stroke="#f4e3b2" stroke-opacity="0.14" stroke-width="4"/>
  <path d="M64 26c18 0 32 14 32 32 0 22-14 36-32 44-18-8-32-22-32-44 0-18 14-32 32-32Z" fill="url(#body)"/>
  <path d="M46 44c10-10 26-10 36 0" fill="none" stroke="#f2c15f" stroke-width="8" stroke-linecap="round"/>
  <circle cx="54" cy="62" r="4" fill="#09111d"/>
  <circle cx="74" cy="62" r="4" fill="#09111d"/>
  <path d="M52 76c8 6 16 6 24 0" fill="none" stroke="#09111d" stroke-width="4" stroke-linecap="round"/>
  <path d="M44 92h40" stroke="#f4e3b2" stroke-opacity="0.22" stroke-width="4"/>
</svg>
